<mxfile host="app.diagrams.net" modified="2024-05-18T15:37:59.890Z" agent="Mozilla/5.0 (Windows NT 10.0; Win64; x64) AppleWebKit/537.36 (KHTML, like Gecko) Chrome/124.0.0.0 Safari/537.36" etag="cz1m9vrSBrGMnRkzwlWD" version="24.4.4" type="github">
  <diagram name="第 1 页" id="C74Ppduo7ToNRI0u_8SW">
    <mxGraphModel dx="1144" dy="826" grid="0" gridSize="10" guides="1" tooltips="1" connect="1" arrows="1" fold="1" page="0" pageScale="1" pageWidth="827" pageHeight="1169" math="0" shadow="0">
      <root>
        <mxCell id="0" />
        <mxCell id="1" parent="0" />
        <mxCell id="10Hywpi1VNbmH5kLwkRw-2" value="" style="line;strokeWidth=2;html=1;" vertex="1" parent="1">
          <mxGeometry x="-62" y="-341" width="500" height="10" as="geometry" />
        </mxCell>
        <mxCell id="10Hywpi1VNbmH5kLwkRw-3" value="" style="line;strokeWidth=2;html=1;" vertex="1" parent="1">
          <mxGeometry x="-62" y="-296" width="502" height="10" as="geometry" />
        </mxCell>
        <mxCell id="10Hywpi1VNbmH5kLwkRw-9" value="" style="line;strokeWidth=2;html=1;" vertex="1" parent="1">
          <mxGeometry x="-62" y="-255" width="501" height="10" as="geometry" />
        </mxCell>
        <mxCell id="10Hywpi1VNbmH5kLwkRw-10" value="" style="line;strokeWidth=2;html=1;" vertex="1" parent="1">
          <mxGeometry x="-62" y="-210" width="501" height="10" as="geometry" />
        </mxCell>
        <mxCell id="10Hywpi1VNbmH5kLwkRw-13" value="" style="line;strokeWidth=4;direction=south;html=1;perimeter=backbonePerimeter;points=[];outlineConnect=0;fillColor=#dae8fc;strokeColor=#6c8ebf;" vertex="1" parent="1">
          <mxGeometry x="37" y="-389" width="10" height="222" as="geometry" />
        </mxCell>
        <mxCell id="10Hywpi1VNbmH5kLwkRw-14" value="" style="line;strokeWidth=4;direction=south;html=1;perimeter=backbonePerimeter;points=[];outlineConnect=0;fillColor=#f8cecc;strokeColor=#b85450;gradientColor=#ea6b66;" vertex="1" parent="1">
          <mxGeometry x="138" y="-389" width="10" height="222" as="geometry" />
        </mxCell>
        <mxCell id="10Hywpi1VNbmH5kLwkRw-15" value="" style="line;strokeWidth=4;direction=south;html=1;perimeter=backbonePerimeter;points=[];outlineConnect=0;fillColor=#ffcd28;strokeColor=#d79b00;gradientColor=#ffa500;" vertex="1" parent="1">
          <mxGeometry x="240" y="-389" width="10" height="222" as="geometry" />
        </mxCell>
        <mxCell id="10Hywpi1VNbmH5kLwkRw-16" value="" style="line;strokeWidth=4;direction=south;html=1;perimeter=backbonePerimeter;points=[];outlineConnect=0;fillColor=#fa6800;strokeColor=#C73500;fontColor=#000000;" vertex="1" parent="1">
          <mxGeometry x="353" y="-389" width="10" height="222" as="geometry" />
        </mxCell>
        <mxCell id="10Hywpi1VNbmH5kLwkRw-17" value="NewRound" style="text;strokeColor=none;align=center;fillColor=none;html=1;verticalAlign=middle;whiteSpace=wrap;rounded=0;fontSize=16;" vertex="1" parent="1">
          <mxGeometry x="-45" y="-378" width="60" height="30" as="geometry" />
        </mxCell>
        <mxCell id="10Hywpi1VNbmH5kLwkRw-18" value="Proposal" style="text;strokeColor=none;align=center;fillColor=none;html=1;verticalAlign=middle;whiteSpace=wrap;rounded=0;fontSize=16;" vertex="1" parent="1">
          <mxGeometry x="59" y="-378" width="60" height="30" as="geometry" />
        </mxCell>
        <mxCell id="10Hywpi1VNbmH5kLwkRw-19" value="Prevote" style="text;strokeColor=none;align=center;fillColor=none;html=1;verticalAlign=middle;whiteSpace=wrap;rounded=0;fontSize=16;" vertex="1" parent="1">
          <mxGeometry x="164" y="-378" width="60" height="30" as="geometry" />
        </mxCell>
        <mxCell id="10Hywpi1VNbmH5kLwkRw-20" value="PreCommit" style="text;strokeColor=none;align=center;fillColor=none;html=1;verticalAlign=middle;whiteSpace=wrap;rounded=0;fontSize=16;" vertex="1" parent="1">
          <mxGeometry x="265" y="-378" width="60" height="30" as="geometry" />
        </mxCell>
        <mxCell id="10Hywpi1VNbmH5kLwkRw-21" value="Commit" style="text;strokeColor=none;align=center;fillColor=none;html=1;verticalAlign=middle;whiteSpace=wrap;rounded=0;fontSize=16;" vertex="1" parent="1">
          <mxGeometry x="363" y="-379" width="60" height="31" as="geometry" />
        </mxCell>
        <mxCell id="10Hywpi1VNbmH5kLwkRw-28" value="" style="shape=umlDestroy;whiteSpace=wrap;html=1;strokeWidth=3;targetShapes=umlLifeline;" vertex="1" parent="1">
          <mxGeometry x="-33" y="-211" width="8" height="11" as="geometry" />
        </mxCell>
        <mxCell id="10Hywpi1VNbmH5kLwkRw-30" value="" style="endArrow=classic;html=1;rounded=0;fontSize=12;startSize=8;endSize=8;curved=1;entryX=0.403;entryY=0.723;entryDx=0;entryDy=0;entryPerimeter=0;exitX=0.207;exitY=0.703;exitDx=0;exitDy=0;exitPerimeter=0;" edge="1" parent="1" source="10Hywpi1VNbmH5kLwkRw-2" target="10Hywpi1VNbmH5kLwkRw-10">
          <mxGeometry width="50" height="50" relative="1" as="geometry">
            <mxPoint x="99" y="-417" as="sourcePoint" />
            <mxPoint x="149" y="-467" as="targetPoint" />
          </mxGeometry>
        </mxCell>
        <mxCell id="10Hywpi1VNbmH5kLwkRw-31" value="" style="endArrow=classic;html=1;rounded=0;fontSize=12;startSize=8;endSize=8;curved=1;entryX=0.405;entryY=0.606;entryDx=0;entryDy=0;entryPerimeter=0;exitX=0.209;exitY=0.703;exitDx=0;exitDy=0;exitPerimeter=0;" edge="1" parent="1" source="10Hywpi1VNbmH5kLwkRw-2" target="10Hywpi1VNbmH5kLwkRw-9">
          <mxGeometry width="50" height="50" relative="1" as="geometry">
            <mxPoint x="109" y="-407" as="sourcePoint" />
            <mxPoint x="159" y="-457" as="targetPoint" />
          </mxGeometry>
        </mxCell>
        <mxCell id="10Hywpi1VNbmH5kLwkRw-32" value="" style="endArrow=classic;html=1;rounded=0;fontSize=12;startSize=8;endSize=8;curved=1;entryX=0.403;entryY=0.5;entryDx=0;entryDy=0;entryPerimeter=0;exitX=0.213;exitY=0.703;exitDx=0;exitDy=0;exitPerimeter=0;" edge="1" parent="1" source="10Hywpi1VNbmH5kLwkRw-2" target="10Hywpi1VNbmH5kLwkRw-3">
          <mxGeometry width="50" height="50" relative="1" as="geometry">
            <mxPoint x="13" y="-408" as="sourcePoint" />
            <mxPoint x="169" y="-447" as="targetPoint" />
          </mxGeometry>
        </mxCell>
        <mxCell id="10Hywpi1VNbmH5kLwkRw-33" value="" style="endArrow=classic;html=1;rounded=0;fontSize=12;startSize=8;endSize=8;curved=1;entryX=0.607;entryY=0.749;entryDx=0;entryDy=0;entryPerimeter=0;exitX=0.406;exitY=0.454;exitDx=0;exitDy=0;exitPerimeter=0;fillColor=#b1ddf0;strokeColor=#10739e;strokeWidth=2;" edge="1" parent="1" source="10Hywpi1VNbmH5kLwkRw-3" target="10Hywpi1VNbmH5kLwkRw-2">
          <mxGeometry width="50" height="50" relative="1" as="geometry">
            <mxPoint x="132" y="-437" as="sourcePoint" />
            <mxPoint x="182" y="-487" as="targetPoint" />
          </mxGeometry>
        </mxCell>
        <mxCell id="10Hywpi1VNbmH5kLwkRw-34" value="" style="endArrow=classic;html=1;rounded=0;fontSize=12;startSize=8;endSize=8;curved=1;entryX=0.604;entryY=0.377;entryDx=0;entryDy=0;entryPerimeter=0;strokeColor=#006EAF;strokeWidth=2;align=center;verticalAlign=middle;fontFamily=Helvetica;fontColor=default;labelBackgroundColor=default;fillColor=#1ba1e2;" edge="1" parent="1" target="10Hywpi1VNbmH5kLwkRw-9">
          <mxGeometry width="50" height="50" relative="1" as="geometry">
            <mxPoint x="143" y="-293" as="sourcePoint" />
            <mxPoint x="209" y="-619.914306640625" as="targetPoint" />
          </mxGeometry>
        </mxCell>
        <mxCell id="10Hywpi1VNbmH5kLwkRw-35" value="" style="endArrow=classic;html=1;rounded=0;fontSize=12;startSize=8;endSize=8;curved=1;entryX=0.607;entryY=0.357;entryDx=0;entryDy=0;entryPerimeter=0;exitX=0.411;exitY=0.454;exitDx=0;exitDy=0;exitPerimeter=0;strokeColor=#006EAF;strokeWidth=2;align=center;verticalAlign=middle;fontFamily=Helvetica;fontColor=default;labelBackgroundColor=default;fillColor=#1ba1e2;" edge="1" parent="1" source="10Hywpi1VNbmH5kLwkRw-3" target="10Hywpi1VNbmH5kLwkRw-10">
          <mxGeometry width="50" height="50" relative="1" as="geometry">
            <mxPoint x="139" y="-377" as="sourcePoint" />
            <mxPoint x="189" y="-427" as="targetPoint" />
          </mxGeometry>
        </mxCell>
        <mxCell id="10Hywpi1VNbmH5kLwkRw-36" value="" style="endArrow=classic;html=1;rounded=0;fontSize=12;startSize=8;endSize=8;curved=1;entryX=0.606;entryY=0.611;entryDx=0;entryDy=0;entryPerimeter=0;exitX=0.406;exitY=0.454;exitDx=0;exitDy=0;exitPerimeter=0;fillColor=#d5e8d4;strokeColor=#82b366;strokeWidth=2;gradientColor=#97d077;" edge="1" parent="1" target="10Hywpi1VNbmH5kLwkRw-2">
          <mxGeometry width="50" height="50" relative="1" as="geometry">
            <mxPoint x="144" y="-249" as="sourcePoint" />
            <mxPoint x="244" y="-292" as="targetPoint" />
          </mxGeometry>
        </mxCell>
        <mxCell id="10Hywpi1VNbmH5kLwkRw-37" value="" style="endArrow=classic;html=1;rounded=0;fontSize=12;startSize=8;endSize=8;curved=1;entryX=0.604;entryY=0.774;entryDx=0;entryDy=0;entryPerimeter=0;exitX=0.412;exitY=0.56;exitDx=0;exitDy=0;exitPerimeter=0;fillColor=#d5e8d4;strokeColor=#82b366;strokeWidth=2;gradientColor=#97d077;" edge="1" parent="1" source="10Hywpi1VNbmH5kLwkRw-9" target="10Hywpi1VNbmH5kLwkRw-3">
          <mxGeometry width="50" height="50" relative="1" as="geometry">
            <mxPoint x="154" y="-239" as="sourcePoint" />
            <mxPoint x="251" y="-325" as="targetPoint" />
          </mxGeometry>
        </mxCell>
        <mxCell id="10Hywpi1VNbmH5kLwkRw-38" value="" style="endArrow=classic;html=1;rounded=0;fontSize=12;startSize=8;endSize=8;curved=1;entryX=0.604;entryY=0.311;entryDx=0;entryDy=0;entryPerimeter=0;fillColor=#d5e8d4;strokeColor=#82b366;strokeWidth=2;gradientColor=#97d077;" edge="1" parent="1" target="10Hywpi1VNbmH5kLwkRw-10">
          <mxGeometry width="50" height="50" relative="1" as="geometry">
            <mxPoint x="147" y="-250" as="sourcePoint" />
            <mxPoint x="261" y="-315" as="targetPoint" />
          </mxGeometry>
        </mxCell>
        <mxCell id="10Hywpi1VNbmH5kLwkRw-40" value="" style="endArrow=classic;html=1;rounded=0;fontSize=12;startSize=8;endSize=8;curved=1;exitX=0.616;exitY=0.611;exitDx=0;exitDy=0;exitPerimeter=0;fillColor=#b1ddf0;strokeColor=#10739e;strokeWidth=2;" edge="1" parent="1">
          <mxGeometry width="50" height="50" relative="1" as="geometry">
            <mxPoint x="247" y="-333.89" as="sourcePoint" />
            <mxPoint x="355" y="-296" as="targetPoint" />
          </mxGeometry>
        </mxCell>
        <mxCell id="10Hywpi1VNbmH5kLwkRw-41" value="" style="endArrow=classic;html=1;rounded=0;fontSize=12;startSize=8;endSize=8;curved=1;fillColor=#b1ddf0;strokeColor=#10739e;strokeWidth=2;entryX=0.602;entryY=0.791;entryDx=0;entryDy=0;entryPerimeter=0;" edge="1" parent="1" target="10Hywpi1VNbmH5kLwkRw-16">
          <mxGeometry width="50" height="50" relative="1" as="geometry">
            <mxPoint x="246" y="-334" as="sourcePoint" />
            <mxPoint x="352" y="-256" as="targetPoint" />
          </mxGeometry>
        </mxCell>
        <mxCell id="10Hywpi1VNbmH5kLwkRw-42" value="" style="endArrow=classic;html=1;rounded=0;fontSize=12;startSize=8;endSize=8;curved=1;fillColor=#b1ddf0;strokeColor=#10739e;strokeWidth=2;" edge="1" parent="1">
          <mxGeometry width="50" height="50" relative="1" as="geometry">
            <mxPoint x="248" y="-334" as="sourcePoint" />
            <mxPoint x="355" y="-208" as="targetPoint" />
          </mxGeometry>
        </mxCell>
        <mxCell id="10Hywpi1VNbmH5kLwkRw-43" value="" style="endArrow=classic;html=1;rounded=0;fontSize=12;startSize=8;endSize=8;curved=1;entryX=0.837;entryY=0.794;entryDx=0;entryDy=0;entryPerimeter=0;fillColor=#d5e8d4;strokeColor=#82b366;strokeWidth=2;gradientColor=#97d077;" edge="1" parent="1" target="10Hywpi1VNbmH5kLwkRw-2">
          <mxGeometry width="50" height="50" relative="1" as="geometry">
            <mxPoint x="244" y="-291" as="sourcePoint" />
            <mxPoint x="325" y="-537" as="targetPoint" />
          </mxGeometry>
        </mxCell>
        <mxCell id="10Hywpi1VNbmH5kLwkRw-44" value="" style="endArrow=classic;html=1;rounded=0;fontSize=12;startSize=8;endSize=8;curved=1;fillColor=#d5e8d4;strokeColor=#82b366;strokeWidth=2;gradientColor=#97d077;" edge="1" parent="1">
          <mxGeometry width="50" height="50" relative="1" as="geometry">
            <mxPoint x="245" y="-289" as="sourcePoint" />
            <mxPoint x="353" y="-256" as="targetPoint" />
          </mxGeometry>
        </mxCell>
        <mxCell id="10Hywpi1VNbmH5kLwkRw-45" value="" style="endArrow=classic;html=1;rounded=0;fontSize=12;startSize=8;endSize=8;curved=1;entryX=0.828;entryY=0.174;entryDx=0;entryDy=0;entryPerimeter=0;fillColor=#d5e8d4;strokeColor=#82b366;strokeWidth=2;gradientColor=#97d077;" edge="1" parent="1" target="10Hywpi1VNbmH5kLwkRw-10">
          <mxGeometry width="50" height="50" relative="1" as="geometry">
            <mxPoint x="245" y="-291" as="sourcePoint" />
            <mxPoint x="287" y="-542" as="targetPoint" />
          </mxGeometry>
        </mxCell>
        <mxCell id="10Hywpi1VNbmH5kLwkRw-46" value="" style="endArrow=classic;html=1;rounded=0;fontSize=12;startSize=8;endSize=8;curved=1;fillColor=#f8cecc;strokeColor=#b85450;strokeWidth=2;gradientColor=#ea6b66;" edge="1" parent="1">
          <mxGeometry width="50" height="50" relative="1" as="geometry">
            <mxPoint x="245" y="-250" as="sourcePoint" />
            <mxPoint x="353" y="-331" as="targetPoint" />
          </mxGeometry>
        </mxCell>
        <mxCell id="10Hywpi1VNbmH5kLwkRw-47" value="" style="endArrow=classic;html=1;rounded=0;fontSize=12;startSize=8;endSize=8;curved=1;fillColor=#f8cecc;strokeColor=#b85450;strokeWidth=2;gradientColor=#ea6b66;align=center;verticalAlign=middle;fontFamily=Helvetica;fontColor=default;labelBackgroundColor=default;" edge="1" parent="1">
          <mxGeometry width="50" height="50" relative="1" as="geometry">
            <mxPoint x="245" y="-249" as="sourcePoint" />
            <mxPoint x="353" y="-209" as="targetPoint" />
          </mxGeometry>
        </mxCell>
        <mxCell id="10Hywpi1VNbmH5kLwkRw-48" value="" style="endArrow=classic;html=1;rounded=0;fontSize=12;startSize=8;endSize=8;curved=1;fillColor=#f8cecc;strokeColor=#b85450;strokeWidth=2;gradientColor=#ea6b66;align=center;verticalAlign=middle;fontFamily=Helvetica;fontColor=default;labelBackgroundColor=default;" edge="1" parent="1">
          <mxGeometry width="50" height="50" relative="1" as="geometry">
            <mxPoint x="248" y="-248" as="sourcePoint" />
            <mxPoint x="353" y="-287" as="targetPoint" />
          </mxGeometry>
        </mxCell>
        <mxCell id="10Hywpi1VNbmH5kLwkRw-49" value="Node1" style="text;html=1;align=center;verticalAlign=middle;resizable=0;points=[];autosize=1;strokeColor=none;fillColor=none;fontSize=12;spacing=-1;fontColor=#3399FF;" vertex="1" parent="1">
          <mxGeometry x="-109" y="-348" width="47" height="20" as="geometry" />
        </mxCell>
        <mxCell id="10Hywpi1VNbmH5kLwkRw-51" value="Node2" style="text;html=1;align=center;verticalAlign=middle;resizable=0;points=[];autosize=1;strokeColor=none;fillColor=none;fontSize=12;spacing=-1;fontColor=#3399FF;" vertex="1" parent="1">
          <mxGeometry x="-109" y="-301" width="47" height="20" as="geometry" />
        </mxCell>
        <mxCell id="10Hywpi1VNbmH5kLwkRw-52" value="Node3" style="text;html=1;align=center;verticalAlign=middle;resizable=0;points=[];autosize=1;strokeColor=none;fillColor=none;fontSize=12;spacing=-1;fontColor=#3399FF;" vertex="1" parent="1">
          <mxGeometry x="-109" y="-260" width="47" height="20" as="geometry" />
        </mxCell>
        <mxCell id="10Hywpi1VNbmH5kLwkRw-53" value="Node4" style="text;html=1;align=center;verticalAlign=middle;resizable=0;points=[];autosize=1;strokeColor=none;fillColor=none;fontSize=12;spacing=-1;fontColor=#3399FF;" vertex="1" parent="1">
          <mxGeometry x="-109" y="-215.5" width="47" height="20" as="geometry" />
        </mxCell>
      </root>
    </mxGraphModel>
  </diagram>
</mxfile>
